<mxfile host="app.diagrams.net" modified="2025-03-07T03:38:21.126Z" agent="Mozilla/5.0 (Windows NT 10.0; Win64; x64) AppleWebKit/537.36 (KHTML, like Gecko) Chrome/133.0.0.0 Safari/537.36" etag="-kXOweTqiwug7xIRnLqG" version="24.5.2" type="github">
  <diagram id="-ibqH0BZb8QJ44Z_VPRG" name="Page-1">
    <mxGraphModel dx="989" dy="567" grid="1" gridSize="10" guides="1" tooltips="1" connect="1" arrows="1" fold="1" page="1" pageScale="1" pageWidth="827" pageHeight="1169" math="0" shadow="0">
      <root>
        <mxCell id="0" />
        <mxCell id="1" parent="0" />
        <mxCell id="RFB3cETPS0-xeulG_OPP-5" value="" style="edgeStyle=none;curved=1;rounded=0;orthogonalLoop=1;jettySize=auto;html=1;fontSize=12;startSize=8;endSize=8;" edge="1" parent="1" source="RFB3cETPS0-xeulG_OPP-3" target="RFB3cETPS0-xeulG_OPP-4">
          <mxGeometry relative="1" as="geometry" />
        </mxCell>
        <mxCell id="RFB3cETPS0-xeulG_OPP-3" value="" style="ellipse;whiteSpace=wrap;html=1;aspect=fixed;" vertex="1" parent="1">
          <mxGeometry x="60" y="170" width="80" height="80" as="geometry" />
        </mxCell>
        <mxCell id="RFB3cETPS0-xeulG_OPP-2" value="&lt;h1 style=&quot;margin-top: 0px;&quot;&gt;Start&lt;/h1&gt;" style="text;html=1;whiteSpace=wrap;overflow=hidden;rounded=0;" vertex="1" parent="1">
          <mxGeometry x="70" y="190" width="60" height="40" as="geometry" />
        </mxCell>
        <mxCell id="RFB3cETPS0-xeulG_OPP-9" value="" style="edgeStyle=none;curved=1;rounded=0;orthogonalLoop=1;jettySize=auto;html=1;fontSize=12;startSize=8;endSize=8;" edge="1" parent="1" source="RFB3cETPS0-xeulG_OPP-4" target="RFB3cETPS0-xeulG_OPP-7">
          <mxGeometry relative="1" as="geometry" />
        </mxCell>
        <mxCell id="RFB3cETPS0-xeulG_OPP-10" value="" style="edgeStyle=none;curved=1;rounded=0;orthogonalLoop=1;jettySize=auto;html=1;fontSize=12;startSize=8;endSize=8;" edge="1" parent="1" source="RFB3cETPS0-xeulG_OPP-4" target="RFB3cETPS0-xeulG_OPP-8">
          <mxGeometry relative="1" as="geometry" />
        </mxCell>
        <mxCell id="RFB3cETPS0-xeulG_OPP-4" value="" style="rhombus;whiteSpace=wrap;html=1;" vertex="1" parent="1">
          <mxGeometry x="200" y="170" width="80" height="80" as="geometry" />
        </mxCell>
        <mxCell id="RFB3cETPS0-xeulG_OPP-6" value="Logged in user?" style="text;html=1;align=center;verticalAlign=middle;whiteSpace=wrap;rounded=0;fontSize=12;" vertex="1" parent="1">
          <mxGeometry x="210" y="195" width="60" height="30" as="geometry" />
        </mxCell>
        <mxCell id="RFB3cETPS0-xeulG_OPP-7" value="" style="rounded=0;whiteSpace=wrap;html=1;" vertex="1" parent="1">
          <mxGeometry x="180" y="30" width="120" height="60" as="geometry" />
        </mxCell>
        <mxCell id="RFB3cETPS0-xeulG_OPP-15" value="" style="edgeStyle=none;curved=1;rounded=0;orthogonalLoop=1;jettySize=auto;html=1;fontSize=12;startSize=8;endSize=8;" edge="1" parent="1" source="RFB3cETPS0-xeulG_OPP-8" target="RFB3cETPS0-xeulG_OPP-14">
          <mxGeometry relative="1" as="geometry" />
        </mxCell>
        <mxCell id="RFB3cETPS0-xeulG_OPP-8" value="" style="rounded=0;whiteSpace=wrap;html=1;" vertex="1" parent="1">
          <mxGeometry x="180" y="320" width="120" height="60" as="geometry" />
        </mxCell>
        <mxCell id="RFB3cETPS0-xeulG_OPP-11" value="Yes" style="text;html=1;align=center;verticalAlign=middle;whiteSpace=wrap;rounded=0;fontSize=12;" vertex="1" parent="1">
          <mxGeometry x="180" y="120" width="60" height="30" as="geometry" />
        </mxCell>
        <mxCell id="RFB3cETPS0-xeulG_OPP-12" value="No" style="text;html=1;align=center;verticalAlign=middle;whiteSpace=wrap;rounded=0;fontSize=12;" vertex="1" parent="1">
          <mxGeometry x="180" y="270" width="60" height="30" as="geometry" />
        </mxCell>
        <mxCell id="RFB3cETPS0-xeulG_OPP-19" value="" style="edgeStyle=none;curved=1;rounded=0;orthogonalLoop=1;jettySize=auto;html=1;fontSize=12;startSize=8;endSize=8;" edge="1" parent="1" source="RFB3cETPS0-xeulG_OPP-14" target="RFB3cETPS0-xeulG_OPP-18">
          <mxGeometry relative="1" as="geometry" />
        </mxCell>
        <mxCell id="RFB3cETPS0-xeulG_OPP-20" value="" style="edgeStyle=none;curved=1;rounded=0;orthogonalLoop=1;jettySize=auto;html=1;fontSize=12;startSize=8;endSize=8;" edge="1" parent="1" source="RFB3cETPS0-xeulG_OPP-14" target="RFB3cETPS0-xeulG_OPP-17">
          <mxGeometry relative="1" as="geometry" />
        </mxCell>
        <mxCell id="RFB3cETPS0-xeulG_OPP-14" value="" style="rhombus;whiteSpace=wrap;html=1;" vertex="1" parent="1">
          <mxGeometry x="200" y="440" width="80" height="80" as="geometry" />
        </mxCell>
        <mxCell id="RFB3cETPS0-xeulG_OPP-16" value="User has account?" style="text;html=1;align=center;verticalAlign=middle;whiteSpace=wrap;rounded=0;fontSize=12;" vertex="1" parent="1">
          <mxGeometry x="210" y="465" width="60" height="30" as="geometry" />
        </mxCell>
        <mxCell id="RFB3cETPS0-xeulG_OPP-17" value="" style="rounded=0;whiteSpace=wrap;html=1;" vertex="1" parent="1">
          <mxGeometry x="180" y="590" width="120" height="60" as="geometry" />
        </mxCell>
        <mxCell id="RFB3cETPS0-xeulG_OPP-27" style="edgeStyle=none;curved=0;rounded=0;orthogonalLoop=1;jettySize=auto;html=1;entryX=1;entryY=0.5;entryDx=0;entryDy=0;fontSize=12;startSize=8;endSize=8;" edge="1" parent="1" source="RFB3cETPS0-xeulG_OPP-18" target="RFB3cETPS0-xeulG_OPP-4">
          <mxGeometry relative="1" as="geometry">
            <Array as="points">
              <mxPoint x="420" y="210" />
            </Array>
          </mxGeometry>
        </mxCell>
        <mxCell id="RFB3cETPS0-xeulG_OPP-18" value="" style="rounded=0;whiteSpace=wrap;html=1;" vertex="1" parent="1">
          <mxGeometry x="360" y="450" width="120" height="60" as="geometry" />
        </mxCell>
        <mxCell id="RFB3cETPS0-xeulG_OPP-21" value="Dashboard" style="text;html=1;align=center;verticalAlign=middle;whiteSpace=wrap;rounded=0;fontSize=12;" vertex="1" parent="1">
          <mxGeometry x="210" y="45" width="60" height="30" as="geometry" />
        </mxCell>
        <mxCell id="RFB3cETPS0-xeulG_OPP-22" value="Login" style="text;html=1;align=center;verticalAlign=middle;whiteSpace=wrap;rounded=0;fontSize=12;" vertex="1" parent="1">
          <mxGeometry x="210" y="335" width="60" height="30" as="geometry" />
        </mxCell>
        <mxCell id="RFB3cETPS0-xeulG_OPP-23" value="Login" style="text;html=1;align=center;verticalAlign=middle;whiteSpace=wrap;rounded=0;fontSize=12;" vertex="1" parent="1">
          <mxGeometry x="390" y="465" width="60" height="30" as="geometry" />
        </mxCell>
        <mxCell id="RFB3cETPS0-xeulG_OPP-24" value="Register" style="text;html=1;align=center;verticalAlign=middle;whiteSpace=wrap;rounded=0;fontSize=12;" vertex="1" parent="1">
          <mxGeometry x="210" y="605" width="60" height="30" as="geometry" />
        </mxCell>
        <mxCell id="RFB3cETPS0-xeulG_OPP-25" value="No" style="text;html=1;align=center;verticalAlign=middle;whiteSpace=wrap;rounded=0;fontSize=12;" vertex="1" parent="1">
          <mxGeometry x="180" y="540" width="60" height="30" as="geometry" />
        </mxCell>
        <mxCell id="RFB3cETPS0-xeulG_OPP-26" value="Yes" style="text;html=1;align=center;verticalAlign=middle;whiteSpace=wrap;rounded=0;fontSize=12;" vertex="1" parent="1">
          <mxGeometry x="280" y="450" width="60" height="30" as="geometry" />
        </mxCell>
      </root>
    </mxGraphModel>
  </diagram>
</mxfile>
